<?xml version="1.0" encoding="utf-8"?>
<svg viewBox="32.899993896484375 382.8000183105469 183.20004272460938 77.69998168945312" width="183.20004272460938" height="77.69998168945312" xmlns="http://www.w3.org/2000/svg"><g transform="matrix(1, 0, 0, 1, 0, 0)">
		<path class="st1" d="M191.1,459.8c-1.8,0-3.8,0.1-6.1,0.1c-2.3,0.1-4.8,0.1-7.4,0.1c-2.7,0.1-5.4,0.1-8.1,0.2&#10;&#9;&#9;&#9;c-2.7,0.1-5.4,0.1-8.1,0.1c-2.6,0-5.1,0.1-7.4,0.1c-2.3,0.1-4.3,0.1-6.1,0.1c-1.8,0-3.2,0-4.1,0c-0.4,0-1.2,0-2.3,0&#10;&#9;&#9;&#9;c-1.2,0-2.6,0-4.3,0h-5.7c-2.1,0-4.3,0-6.6,0c-2.3,0-4.6,0-6.9,0h-6.7h-5.9h-4.5h-4.3h-5.7c-2,0-4.1,0-6.2,0c-2.1,0-4,0-5.8,0&#10;&#9;&#9;&#9;c-1.8,0-3.3,0-4.5,0c-1.2,0-2,0-2.3,0l-4-0.5c-0.5-1-0.8-1.9-1.1-2.5c-0.3-0.7-0.6-1.3-0.8-1.8c-0.3-0.6-0.4-1-0.6-1.1&#10;&#9;&#9;&#9;c-0.8-0.1-1.5-0.2-2.1-0.3c-0.6-0.1-1.2-0.1-1.7-0.1c-0.5,0-1.1-0.1-1.6-0.1c-0.5,0-1.1,0-1.8,0h-1.7c-0.3,0.9-0.5,1.9-0.7,3&#10;&#9;&#9;&#9;c-0.2,1.1-0.4,2.1-0.5,3v-6c-0.2,0.3-0.3,0.8-0.4,1.4c-0.1,0.6-0.2,1.2-0.3,1.8c-0.1,0.6-0.3,1.2-0.5,1.6&#10;&#9;&#9;&#9;c-0.2,0.5-0.5,0.7-0.9,0.7c-0.1,0-0.1,0-0.2,0c-0.1-0.1-0.2-0.2-0.3-0.5c-0.1-0.2-0.2-0.4-0.2-0.5c0-0.2-0.1-0.5-0.1-1&#10;&#9;&#9;&#9;c-0.1-0.5-0.1-1-0.2-1.5c-0.1-0.5-0.1-1-0.1-1.5c0-0.5,0-0.8,0-1h-1l-1,5.5h-0.7v-5.8l-15.7-1.6c0,0-0.1-0.2-0.2-0.6&#10;&#9;&#9;&#9;c-0.1-0.4-0.2-0.7-0.3-0.9c-0.2-0.9-0.3-1.7-0.4-2.3c-0.1-0.6-0.1-1.3-0.1-1.9c0-0.6,0-1.3,0-2c0-0.7,0-1.6,0-2.7V440&#10;&#9;&#9;&#9;c0-0.6,0-1.2,0-1.8c0-0.6,0-1.2,0-1.8v-1.2l2,1l-1,1v4.7c0.1,0,0.3,0,0.5-0.1c0.2-0.1,0.5-0.2,0.7-0.3c0.3-0.1,0.5-0.2,0.7-0.3&#10;&#9;&#9;&#9;c0.2-0.1,0.4-0.1,0.5,0c0,0,0.1,0.1,0.1,0.3c0.1,0.2,0.1,0.4,0.1,0.6c0,0.2,0.1,0.4,0.1,0.6c0,0.2,0.1,0.3,0.1,0.3&#10;&#9;&#9;&#9;c0.4,0.1,0.7,0.2,1,0.2c0.3,0.1,0.5,0.1,0.8,0.2c0.3,0,0.5,0.1,0.7,0.1c0,0,0.1,0,0.3,0c0.1,0,0.2,0,0.3,0c0.2,0,0.4-0.1,0.5-0.2&#10;&#9;&#9;&#9;c0.1-0.1,0.2-0.3,0.2-0.4c0.1-0.2,0.2-0.3,0.3-0.4c0.1-0.1,0.3-0.2,0.5-0.2c0.3,0,0.5,0.1,0.7,0.2c0.2,0.1,0.3,0.4,0.3,0.9l1-1&#10;&#9;&#9;&#9;h4.5l1,1H58c0.2-0.5,0.4-0.8,0.7-0.9c0.3-0.1,0.6-0.2,1-0.2c0.5,0,0.8,0,0.8,0.1c0,0.1,0,0.2,0,0.3c0,0.1,0.1,0.1,0.3,0.2&#10;&#9;&#9;&#9;c0.2,0.1,0.7,0.1,1.6,0.1v-3.6c0.5-0.3,0.9-0.8,1.2-1.5c0.3-0.7,0.5-1.4,0.6-2.1c0.1-0.8,0.2-1.5,0.2-2.2c0-0.7,0-1.3,0-1.7l1-0.5&#10;&#9;&#9;&#9;c0,0,0.1-0.2,0.3-0.8c0.2-0.5,0.4-1.1,0.6-1.8c0.2-0.7,0.4-1.4,0.6-2.1c0.2-0.7,0.4-1.3,0.5-1.8c0.1-0.3,0.2-0.7,0.2-1.1&#10;&#9;&#9;&#9;c0-0.4,0.1-0.8,0.2-1.2c0.1-0.3,0.3-0.6,0.6-0.9c0.3-0.3,0.8-0.4,1.4-0.4c0.1,0,0.2,0,0.3,0.1c0.1,0,0.2,0,0.2,0l-0.2,7v-3.5&#10;&#9;&#9;&#9;l-1.2-0.5c-0.1,0.1-0.2,0.3-0.3,0.7c-0.1,0.4-0.2,0.6-0.2,0.8c-0.1,0.4-0.2,1.1-0.3,2.1c-0.1,1-0.3,2.1-0.5,3.3&#10;&#9;&#9;&#9;c-0.2,1.2-0.3,2.3-0.4,3.3c-0.1,1-0.2,1.8-0.3,2.2c0,0.1,0,0.2,0,0.5c0,0.3,0,0.5,0,0.6c0,0.3,0.1,0.6,0.2,0.7&#10;&#9;&#9;&#9;c0.1,0.1,0.2,0.2,0.4,0.3c0.1,0.1,0.3,0.1,0.4,0.2c0.1,0.1,0.2,0.2,0.2,0.4c0,0.2-0.1,0.4-0.2,0.5c-0.1,0.1-0.2,0.2-0.4,0.4&#10;&#9;&#9;&#9;c-0.1,0.1-0.3,0.2-0.4,0.4c-0.1,0.1-0.2,0.3-0.2,0.5c0,0.3,0,0.6,0.1,0.8c0.1,0.2,0.2,0.5,0.4,0.7c0-0.1,0.1-0.2,0.2-0.3&#10;&#9;&#9;&#9;c0.1-0.1,0.2-0.2,0.3-0.2c0.1,0,0.2,0.1,0.5,0.2c0.3,0.2,0.4,0.2,0.5,0.2c0,0,0.1-0.1,0.2-0.2c0.1-0.1,0.2-0.2,0.3-0.3&#10;&#9;&#9;&#9;c0.1-0.1,0.2-0.3,0.3-0.6c0.1-0.3,0.3-0.6,0.5-0.9c0.2-0.3,0.3-0.6,0.4-0.9c0.1-0.3,0.2-0.5,0.2-0.6h1.5v-2l-1,1.5&#10;&#9;&#9;&#9;c0,0,0-0.1,0-0.2c0-0.1,0-0.2,0-0.3c0-0.5,0.1-1,0.3-1.4c0.2-0.4,0.5-0.8,0.7-1.2c0.3-0.4,0.5-0.8,0.7-1.2&#10;&#9;&#9;&#9;c0.2-0.4,0.3-0.9,0.3-1.4c0-0.1,0-0.3,0-0.6c0-0.3,0-0.5,0-0.6c-0.3,0.4-0.6,0.6-1.1,0.6c0-0.8,0.4-1.2,1.1-1.2&#10;&#9;&#9;&#9;c0.2,0,0.4,0,0.6,0.1c0.2,0.1,0.3,0.2,0.4,0.5c0-0.2,0-0.4,0-0.8c0-0.4,0-0.8,0.1-1.3c0-0.4,0.1-0.9,0.1-1.4&#10;&#9;&#9;&#9;c0-0.5,0.1-0.9,0.1-1.3c0.1-0.6,0.1-1,0.1-1.2c0-0.2,0.2-0.5,0.4-0.9c0.2-0.4,0.5-0.6,0.8-0.6c0.4,0,0.7,0.2,0.8,0.5&#10;&#9;&#9;&#9;c0.1,0.3,0.2,0.7,0.2,1.1c0.1,0.4,0.2,0.8,0.3,1.1c0.1,0.3,0.5,0.5,0.9,0.5h10.5v0.7l-3,1.5v1.5h4c0.1-0.7,0.2-1.3,0.2-1.7&#10;&#9;&#9;&#9;c0.1-0.5,0.1-1,0.2-1.5c0.1-0.5,0.1-0.9,0.1-1.3V427c0-0.2,0-0.4,0-0.6c0-0.2,0-0.5,0-0.7V425v-0.4c0-0.2,0-0.4,0-0.7&#10;&#9;&#9;&#9;c0-0.2,0-0.5,0-0.7v-0.5c-0.4-0.5-0.8-0.8-1.3-1c-0.5-0.2-0.9-0.5-1.2-1c0,0,0.1,0,0.2,0c0.1,0,0.2,0,0.3,0c0.4,0,0.8,0.1,1.1,0.3&#10;&#9;&#9;&#9;c0.3,0.2,0.6,0.4,0.9,0.7c0.3,0.3,0.6,0.6,0.8,0.8c0.3,0.3,0.6,0.5,0.9,0.7v8c0.1-0.1,0.2-0.2,0.3-0.4c0.1-0.2,0.3-0.4,0.4-0.6&#10;&#9;&#9;&#9;c0.1-0.2,0.2-0.4,0.3-0.6c0.1-0.2,0.2-0.3,0.2-0.4c0.1-0.3,0.3-0.9,0.6-1.8c0.3-0.8,0.6-1.8,0.9-2.7c0.3-1,0.6-1.9,0.9-2.7&#10;&#9;&#9;&#9;c0.3-0.8,0.5-1.4,0.6-1.8c-0.2-0.3-0.5-0.6-0.9-0.9c-0.4-0.3-0.7-0.6-1.1-0.8c-0.4-0.3-0.7-0.5-1.1-0.7c-0.4-0.2-0.7-0.4-0.9-0.5&#10;&#9;&#9;&#9;h0.7c2.7,0,5.4,0.2,8.1,0.4c2.7,0.3,5.4,0.4,8.1,0.4v-17.4c0-0.1-0.1-0.2-0.2-0.3c-0.2-0.1-0.3-0.2-0.5-0.3&#10;&#9;&#9;&#9;c-0.2-0.1-0.4-0.2-0.7-0.3c0.1,0,0.4-0.1,0.8-0.2c0.4-0.1,0.6-0.2,0.7-0.3c0-0.1,0-0.2,0-0.2c0,0,0-0.1,0-0.2&#10;&#9;&#9;&#9;c-0.1-0.1-0.3-0.3-0.7-0.5c-0.4-0.2-0.6-0.4-0.8-0.5c0.1-0.1,0.3-0.2,0.5-0.5c0.3-0.2,0.4-0.4,0.5-0.5c0-0.1,0.1-0.2,0.1-0.3&#10;&#9;&#9;&#9;c0,0,0-0.1-0.1-0.2c0-0.1-0.1-0.2-0.2-0.3c-0.1-0.1-0.2-0.2-0.3-0.2c0.2-0.1,0.3-0.2,0.4-0.4c0.1-0.2,0.2-0.4,0-0.6l1,0.5v-9.5&#10;&#9;&#9;&#9;l-0.5-0.5c0.2-0.1,0.4-0.2,0.5-0.5c0.1-0.2,0.2-0.5,0.3-0.8c0.1-0.3,0.1-0.5,0.2-0.8c0-0.3,0.1-0.4,0.1-0.5l1,20.7h4.5v1.2&#10;&#9;&#9;&#9;c-0.2,0.1-0.5,0.2-0.8,0.2c-0.3,0.1-0.7,0.2-1.1,0.3c-0.4,0.1-0.8,0.3-1.1,0.4c-0.4,0.1-0.7,0.3-1,0.5v0.4c0,0.2,0,0.4,0,0.7&#10;&#9;&#9;&#9;c0,0.2,0,0.5,0,0.7v0.4c0,3.1,0.1,6.2,0.3,9.4c0.2,3.1,0.6,6.2,1.2,9.4c0.3-0.5,0.6-1,0.7-1.7c0.1-0.7,0.2-1.3,0.3-1.7&#10;&#9;&#9;&#9;c0,0,0.1,0,0.1,0c0,0,0.1,0,0.1,0c0,0,0.1,0,0.3,0.1c0.4,0.2,0.7,0.6,0.8,1.2c0.1,0.6,0.2,1.2,0.2,1.6v0.6h0.7v-2h1.5v2h1v-6h0.7&#10;&#9;&#9;&#9;c0,0.1,0,0.4,0,0.7c0,0.3,0.1,0.7,0.1,1.1c0.1,0.4,0.1,0.7,0.2,1c0.1,0.3,0.1,0.5,0.2,0.7c0,0,0.1,0.1,0.2,0.2&#10;&#9;&#9;&#9;c0.2,0.1,0.2,0.2,0.3,0.2c0,0.1,0,0.2,0,0.3c0,0,0,0.1,0,0.3l-0.5,0.5c0,0.1-0.1,0.2-0.1,0.3c0,0,0,0.1,0,0.1c0,0,0,0.1,0,0.1&#10;&#9;&#9;&#9;c0.5,0.2,0.9,0.3,1.2,0.4c0.3,0.1,0.6,0.1,0.8,0.1c0.2,0,0.5,0,0.8-0.1c0.3,0,0.8-0.1,1.3-0.1v-5.8h2.2c-0.4,0.9-0.4,1.6,0.1,2.1&#10;&#9;&#9;&#9;c0.5,0.6,1.1,1,2,1.3c0.8,0.3,1.8,0.6,2.7,0.7c1,0.1,1.7,0.2,2.2,0.3c0,0.5,0,0.8,0.1,0.9c0.1,0.1,0.2,0.2,0.3,0.1&#10;&#9;&#9;&#9;c0.1,0,0.3-0.1,0.4-0.2c0.2-0.1,0.3-0.1,0.5-0.1c0-0.4,0-0.8,0.1-1c0.1-0.2,0.1-0.4,0.1-0.6c0-0.2,0-0.4-0.1-0.6&#10;&#9;&#9;&#9;c-0.1-0.2-0.2-0.5-0.4-0.9h1.2v3.5c0,0.1,0.2,0.2,0.5,0.3c0.3,0.1,0.6,0.2,0.8,0.2c0,0,0.3,0,0.7,0c0.4,0,0.8,0,1,0&#10;&#9;&#9;&#9;c0.1,0,0.4,0,0.9,0c0.5,0,0.7,0,0.9,0c0.1-0.2,0.1-0.6,0.2-1c0.1-0.5,0.2-0.9,0.3-1.3c0.1-0.4,0.3-0.8,0.5-1.1&#10;&#9;&#9;&#9;c0.3-0.3,0.6-0.5,1-0.5c-0.1,0-0.3-0.1-0.5-0.2c-0.3-0.1-0.4-0.2-0.5-0.3c0-0.1-0.1-0.2-0.1-0.3c0,0,0-0.1,0.1-0.2&#10;&#9;&#9;&#9;c0.1-0.1,0.3-0.2,0.6-0.3c0.3-0.1,0.5-0.2,0.6-0.2v-6.3c0.4,0,0.7-0.1,1-0.3c0.2-0.2,0.4-0.5,0.6-0.8c0.1-0.3,0.3-0.7,0.4-1&#10;&#9;&#9;&#9;c0.1-0.4,0.2-0.7,0.3-0.9h0.5v3h3v-7c-0.3-0.3-0.5-0.7-0.5-1.2c-0.1-0.5-0.1-0.9-0.1-1.3h2.3c0,0.4,0,0.8-0.1,1.3&#10;&#9;&#9;&#9;c-0.1,0.5-0.2,0.9-0.5,1.2v6.5l0.5,0.5c0.2,0,0.4-0.1,0.7-0.1c0.3,0,0.7,0,1.2,0h2.9h2.8c0.5,0,0.9,0,1.1,0c0.3,0,0.5,0,0.7,0.1&#10;&#9;&#9;&#9;c0.1,0,0.3,0,0.6,0.1c0.3,0.1,0.6,0.1,0.9,0.2c0.3,0.1,0.6,0.2,0.9,0.2c0.3,0.1,0.5,0.1,0.6,0.2h-2.5c0.1,0,0.4,0.1,0.8,0.2&#10;&#9;&#9;&#9;c0.4,0.1,0.9,0.2,1.4,0.4c0.5,0.1,0.9,0.3,1.3,0.6c0.4,0.2,0.6,0.5,0.6,0.8c0,0.4-0.1,0.7-0.2,1c-0.1,0.3-0.2,0.6-0.4,1&#10;&#9;&#9;&#9;c-0.1,0.3-0.3,0.7-0.4,1c-0.1,0.3-0.2,0.7-0.2,1.1c0,0.8,0,1.5,0,2.1c0,0.6,0.1,1.2,0.2,1.8c0.1,0.6,0.2,1.3,0.3,1.9&#10;&#9;&#9;&#9;c0.1,0.7,0.3,1.4,0.5,2.2c0.4,0.1,0.6,0.4,0.7,0.8c0.1,0.4,0.1,0.8,0.2,1.2c0.1,0.4,0.1,0.8,0.3,1.1c0.1,0.3,0.4,0.5,0.9,0.5&#10;&#9;&#9;&#9;c0.3,0,0.5-0.1,0.7-0.2c0.2-0.1,0.3-0.4,0.2-0.9l1.3,1v-5.3c0.4,0,0.7-0.1,1-0.3c0.3-0.2,0.4-0.5,0.6-0.8c0.2-0.3,0.3-0.7,0.4-1&#10;&#9;&#9;&#9;c0.1-0.4,0.2-0.7,0.3-0.9c-0.1,0.5-0.1,0.9,0,1.1c0.1,0.2,0.3,0.3,0.5,0.4c0.2,0,0.5,0.1,0.8,0c0.3,0,0.5,0,0.7,0&#10;&#9;&#9;&#9;c1,0.2,1.7,0.4,2.1,0.8c0.4,0.3,0.6,0.8,0.8,1.3c0.1,0.5,0.2,1,0.3,1.6c0.1,0.6,0.3,1.2,0.8,1.8c0.1,0.1,0.2,0.2,0.3,0.5&#10;&#9;&#9;&#9;c0.1,0.3,0.2,0.4,0.2,0.5c0.2-0.1,0.3-0.2,0.4-0.4c0.1-0.2,0.1-0.4,0-0.6c0.1,0.1,0.2,0.2,0.5,0.3c0.2,0.1,0.4,0.2,0.5,0.2&#10;&#9;&#9;&#9;c0.2,0,0.5,0,1,0c0.5,0,1,0,1.5,0.1c0.5,0,1,0.1,1.5,0.1c0.5,0,0.8,0,1,0v1.2c0.3,0,0.8,0,1.3,0c0.6,0,1.1,0,1.7,0&#10;&#9;&#9;&#9;c0.6,0,1.2,0,1.7-0.1c0.5-0.1,0.9-0.2,1.2-0.3c0.5-0.3,0.7-0.5,0.7-0.8c0-0.2,0-0.5,0-0.6c0-0.2,0-0.3,0.2-0.5&#10;&#9;&#9;&#9;c0.1-0.1,0.5-0.2,1.2-0.2c0.1,0,0.4,0,0.8,0.1c0.2,0.2,0.3,0.5,0.4,1c0.1,0.5,0.1,0.8,0.1,1h6.5v-0.5c0.3,0.2,0.5,0.3,0.6,0.4&#10;&#9;&#9;&#9;c0.1,0.1,0.3,0.1,0.4,0.1c0.1,0,0.2,0,0.3-0.1c0.1,0,0.3,0,0.6,0v-0.4l1,0.5c0.1,0,0.4,0,0.8,0c0.4,0,0.9,0.1,1.3,0.1h0.6h0.9&#10;&#9;&#9;&#9;c0.6,0,1.2,0,1.8-0.1c0.6,0,1,0,1.1,0c0.3,0,0.7-0.1,1.2-0.2c0.5-0.1,1-0.2,1.4-0.3c0.5-0.1,0.9-0.2,1.2-0.3&#10;&#9;&#9;&#9;c0.4-0.1,0.6-0.2,0.6-0.2l0.5-1c-0.1,0.5,0,0.8,0.2,0.9c0.2,0.1,0.4,0.2,0.6,0.1c0.2,0,0.5-0.1,0.7-0.2c0.2-0.1,0.4-0.2,0.5-0.2&#10;&#9;&#9;&#9;v-4.6l-1,2c0,0,0-0.1,0-0.2c0-0.1,0-0.2,0-0.3c0-0.1,0-0.2,0-0.3c0-0.1,0-0.2,0-0.2c0.1-0.2,0.2-0.5,0.3-0.9&#10;&#9;&#9;&#9;c0.1-0.4,0.3-0.9,0.4-1.4c0.2-0.5,0.3-0.9,0.5-1.3c0.1-0.4,0.2-0.7,0.3-0.9c0,0.4,0.1,1,0.1,1.9c0.1,0.9,0.1,1.8,0.2,2.8&#10;&#9;&#9;&#9;c0,1,0.1,2,0.1,2.9c0,0.9,0.1,1.5,0.1,1.9v0.3v0.2c-0.1,0.1-0.2,0.2-0.5,0.3c-0.3,0.1-0.4,0.2-0.5,0.2c-0.2,0.3-0.6,0.8-1,1.4&#10;&#9;&#9;&#9;c-0.4,0.6-0.9,1.3-1.5,2.1c-0.6,0.8-1.2,1.6-1.8,2.5c-0.6,0.9-1.2,1.7-1.8,2.5c-0.6,0.8-1.1,1.5-1.5,2.1c-0.4,0.6-0.8,1.1-1,1.4&#10;&#9;&#9;&#9;c-0.8,1.2-1.6,2.5-2.4,3.9c-0.8,1.4-1.6,2.8-2.6,4c-0.9,1.3-2,2.4-3.2,3.3c-1.2,0.9-2.6,1.5-4.3,1.7&#10;&#9;&#9;&#9;C194.2,459.7,192.9,459.8,191.1,459.8z M63.2,441.7c0,0.3,0.1,0.4,0.2,0.5c0.1,0,0.1,0,0.2-0.1c0-0.1,0.1-0.2,0.1-0.4&#10;&#9;&#9;&#9;c0-0.1,0-0.3-0.1-0.4c-0.1-0.1-0.1-0.2-0.2-0.1C63.3,441.3,63.2,441.5,63.2,441.7z M70.2,443c0,0.1,0.1,0.2,0.2,0.2&#10;&#9;&#9;&#9;c0.2,0.1,0.2,0,0.2-0.2c0-0.2-0.1-0.3-0.2-0.2C70.3,442.8,70.2,442.9,70.2,443z M72.1,442.7c0,0.3,0.1,0.5,0.4,0.5&#10;&#9;&#9;&#9;c0.3,0,0.4-0.2,0.4-0.5c0-0.3-0.1-0.5-0.4-0.5C72.2,442.2,72.1,442.4,72.1,442.7z M73.2,443c0,0.1,0.1,0.2,0.2,0.2&#10;&#9;&#9;&#9;c0.2,0.1,0.2,0,0.2-0.2c0-0.2-0.1-0.3-0.2-0.2C73.3,442.8,73.2,442.9,73.2,443z M73.3,436.9c0,0.3,0,0.7,0,1c0,0.4,0,0.7,0,1&#10;&#9;&#9;&#9;c0,0.3,0.1,0.6,0.1,0.7c0.1,0.1,0.1,0,0.2-0.4c0.1-0.4,0.1-0.8,0.1-1.3c0-0.5,0-0.9-0.1-1.3c0-0.4-0.1-0.5-0.2-0.4&#10;&#9;&#9;&#9;C73.4,436.4,73.3,436.6,73.3,436.9z M78.2,430.5c0,0.3,0.1,0.6,0.3,0.7c0.1,0.1,0.1,0,0.2-0.2c0.1-0.2,0.1-0.4,0.1-0.6&#10;&#9;&#9;&#9;c0-0.2,0-0.4-0.1-0.6c-0.1-0.2-0.1-0.2-0.2-0.1C78.3,429.9,78.2,430.2,78.2,430.5z M90.3,422.8c0,0.3-0.1,0.5-0.4,0.5&#10;&#9;&#9;&#9;c-0.3,0-0.4-0.2-0.4-0.5c0-0.3,0.1-0.5,0.4-0.5C90.2,422.3,90.3,422.4,90.3,422.8z M109.6,396.6c0,0.1,0.1,0.2,0.2,0.3&#10;&#9;&#9;&#9;c0.2,0.1,0.2,0,0.2-0.2c0-0.3-0.1-0.4-0.2-0.3C109.7,396.4,109.6,396.5,109.6,396.6z M112,404.3c0,0.3,0.1,0.5,0.4,0.5&#10;&#9;&#9;&#9;c0.3,0,0.4-0.2,0.4-0.5c0-0.3-0.1-0.5-0.4-0.5C112.1,403.8,112,404,112,404.3z M113,404.3c0,0.3,0.1,0.5,0.4,0.5&#10;&#9;&#9;&#9;c0.3,0,0.4-0.2,0.4-0.5c0-0.3-0.1-0.5-0.4-0.5C113.1,403.8,113,404,113,404.3z M114.6,404.5c0.1,0,0.2-0.1,0.3-0.2&#10;&#9;&#9;&#9;c0-0.2-0.1-0.2-0.3-0.2c-0.2,0-0.3,0.1-0.2,0.2C114.4,404.5,114.5,404.5,114.6,404.5z M135.2,426.3c0,0.3-0.1,0.5-0.4,0.5&#10;&#9;&#9;&#9;c-0.3,0-0.4-0.2-0.4-0.5c0-0.3,0.1-0.5,0.4-0.5C135.1,425.8,135.2,425.9,135.2,426.3z M143.5,416.5c0,0.1,0.1,0.2,0.2,0.2&#10;&#9;&#9;&#9;c0.2,0.1,0.3,0,0.3-0.2c0-0.2-0.1-0.3-0.3-0.3C143.6,416.3,143.5,416.4,143.5,416.5z M145.8,416.3v0.7c0.2,0,0.5,0,0.9-0.1&#10;&#9;&#9;&#9;c0.3-0.1,0.5-0.2,0.6-0.5H145.8z M148.3,416.8h0.5v-0.5L148.3,416.8z M150.3,416.3v0.5h4v-0.5H150.3z M155.3,416.3v0.5h3v-0.5&#10;&#9;&#9;&#9;H155.3z M169.2,433.7h0.5v-0.5L169.2,433.7z M171.1,429.2c0,0.2-0.1,0.5-0.1,0.7c0,0.3,0,0.5,0.1,0.8c0,0.2,0.1,0.4,0.1,0.5&#10;&#9;&#9;&#9;c0.1,0.1,0.1,0,0.2-0.3c0-0.3,0.1-0.6,0.1-1c0-0.4,0-0.7-0.1-1c0-0.3-0.1-0.4-0.2-0.3C171.2,428.9,171.1,429,171.1,429.2z&#10;&#9;&#9;&#9; M173.7,428.8c-0.1-0.3-0.3-0.5-0.7-0.6c-0.4-0.1-0.7-0.1-0.9-0.1c0,0.2,0.1,0.5,0.3,0.8c0.2,0.3,0.5,0.6,0.7,0.9&#10;&#9;&#9;&#9;c0.3,0.3,0.6,0.6,0.9,0.9c0.3,0.3,0.5,0.5,0.7,0.5c0-0.1,0-0.2,0-0.5c0-0.3,0-0.4,0-0.5c0-0.4,0-0.7-0.1-1c0-0.3-0.2-0.6-0.5-0.9&#10;&#9;&#9;&#9;L173.7,428.8z M175.3,433.2c0,0.3,0.1,0.5,0.4,0.5c0.3,0,0.4-0.2,0.4-0.5c0-0.3-0.1-0.5-0.4-0.5&#10;&#9;&#9;&#9;C175.5,432.7,175.3,432.9,175.3,433.2z M175.8,432.7c0,0.3,0.1,0.5,0.4,0.5c0.3,0,0.4-0.2,0.4-0.5c0-0.3-0.1-0.5-0.4-0.5&#10;&#9;&#9;&#9;C176,432.2,175.8,432.4,175.8,432.7z M214.8,430.4c0,0.1,0.1,0.2,0.1,0.4c0,0.1,0,0.3-0.1,0.4c-0.1,0.1-0.1,0.2-0.2,0.1&#10;&#9;&#9;&#9;c-0.2-0.1-0.2-0.2-0.2-0.5c0-0.3,0.1-0.4,0.2-0.5C214.7,430.2,214.8,430.3,214.8,430.4z" style="fill: rgb(204, 204, 204); opacity: 1;"/>
	</g></svg>