<?xml version="1.0" encoding="utf-8"?>
<svg viewBox="457.5 368.6998291015625 158.900390625 42.900177001953125" width="158.900390625" height="42.900177001953125" xmlns="http://www.w3.org/2000/svg"><path class="st3" d="M514,411.4h-5.5l-47.2,0.2c-0.3,0-0.5-0.2-0.8-0.6c-0.2-0.4-0.4-0.9-0.6-1.6c-0.2-0.6-0.3-1.3-0.4-2.1&#10;&#9;&#9;c-0.1-0.8-0.2-1.5-0.3-2.2c-0.1-0.7-0.2-1.3-0.2-1.8c-0.1-0.5-0.1-0.9-0.2-1.1l-1.3-4.3c0-0.1,0-0.1,0-0.1c0,0,0-0.1,0-0.1&#10;&#9;&#9;c0.7,0,1.3,0,1.7-0.1c0.4-0.1,0.8-0.2,1.1-0.3c0.3-0.1,0.7-0.2,1.1-0.4c0.4-0.1,0.9-0.2,1.7-0.2c0.3,0,0.9,0,1.6,0&#10;&#9;&#9;c0.8,0,1.6,0.1,2.4,0.1c0.9,0,1.7,0.1,2.4,0.1c0.8,0.1,1.3,0.1,1.6,0.1c0.1,0.1,0.2,0.1,0.4,0.3c0.2,0.1,0.4,0.2,0.4,0.2&#10;&#9;&#9;c0.1,0,0.3,0,0.6,0c0.3,0,0.6-0.1,1-0.1c0.4,0,0.7-0.1,1.1-0.1c0.4-0.1,0.6-0.1,0.8-0.1c0,0,0.1,0,0.2-0.1c0.1,0,0.3-0.1,0.4-0.1&#10;&#9;&#9;c0.1-0.1,0.3-0.1,0.4-0.1c0.1,0,0.2-0.1,0.2-0.1c0.1,0,0.2,0.1,0.4,0.2c0.2,0.1,0.4,0.2,0.4,0.2c0.1,0,0.4,0.1,0.7,0.1&#10;&#9;&#9;c0.3,0.1,0.7,0.1,1,0.1c0.4,0,0.7,0.1,1,0.1c0.3,0,0.5,0,0.7,0l-0.4,0.4h0.9h0.8c0.4,0,1,0,2,0c0.9,0,1.9-0.1,3-0.1&#10;&#9;&#9;c1,0,2-0.1,2.9-0.2c0.9-0.1,1.6-0.1,1.9-0.1c-0.3,0-0.7-0.1-1.3-0.2c-0.6-0.1-1.2-0.2-1.9-0.4c-0.7-0.1-1.3-0.3-1.9-0.4&#10;&#9;&#9;c-0.6-0.1-1-0.2-1.3-0.3c-0.1,0-0.3-0.1-0.7-0.2c-0.3-0.1-0.5-0.2-0.6-0.2h0.9c1.4,0,2.7,0.1,3.9,0.4c1.3,0.3,2.6,0.4,3.9,0.4&#10;&#9;&#9;c1,0,2.1-0.1,3.1-0.2c1-0.2,2-0.2,3.1-0.2h0.8c0.3,0,0.6,0,0.9,0c0.3,0,0.6,0,0.9,0h0.4c0.2,0,0.4,0,0.6,0.1c0.2,0,0.5,0.1,0.7,0.1&#10;&#9;&#9;c0.2,0,0.4,0.1,0.6,0.1c0.2,0,0.2,0.1,0.2,0.1v1.1c0.3,0,0.6,0,1,0c0.4,0,0.8-0.1,1.3-0.2c0.4-0.1,0.8-0.3,1.1-0.5&#10;&#9;&#9;c0.3-0.2,0.5-0.5,0.5-0.9c0-0.1-0.1-0.1-0.2-0.2c-0.1-0.1-0.2-0.2-0.3-0.2l-8.1-1.7l-0.9-0.4h0.2h0.2l7.2,0.9c0.1,0,0.2,0,0.5,0&#10;&#9;&#9;c0.3,0,0.5,0,0.6,0c0.3,0,0.7,0,1-0.1c0.3-0.1,0.7-0.2,1-0.3c0.3-0.1,0.7-0.2,1-0.3c0.3-0.1,0.6-0.1,0.8-0.1c0,0,0.1,0,0.2,0&#10;&#9;&#9;c0.1,0,0.1,0.1,0.2,0.2c0.1,0.1,0.2,0.2,0.2,0.2h3c0.3,0,0.5-0.2,0.7-0.6c0.2-0.4,0.3-0.7,0.3-0.9c0.9,0,1.7,0.3,2.2,0.9&#10;&#9;&#9;c0.5,0.6,0.9,1.3,1.1,2.3h2.1v-3.8c-0.3-0.1-0.5-0.3-0.5-0.6v-0.8v-0.5c0-0.3,0-0.7,0.1-1.2c0.1-0.5,0.2-0.7,0.4-0.7h2.6&#10;&#9;&#9;c0,0.1,0.1,0.2,0.2,0.4c0.1,0.2,0.2,0.4,0.2,0.4c0.1,0,0.2,0,0.2,0c0,0,0.1,0,0.2,0l0.9-0.9c0.1,0,0.2,0,0.2,0c0,0,0.1,0,0.2,0&#10;&#9;&#9;c0.1,0.1,0.1,0.2,0.2,0.4c0.1,0.2,0.2,0.4,0.2,0.4c0.1,0.1,0.2,0,0.6-0.1c0.3-0.1,0.5-0.2,0.6-0.2c0-0.1-0.1-0.4-0.2-0.7&#10;&#9;&#9;c-0.1-0.3-0.1-0.6-0.1-0.7c0,0,0-0.1,0.1-0.2c0.1-0.1,0.2-0.3,0.3-0.4c0.1-0.1,0.2-0.3,0.3-0.4c0.1-0.1,0.1-0.2,0.1-0.3&#10;&#9;&#9;c0-0.1-0.1-0.2-0.2-0.4c-0.1-0.2-0.2-0.4-0.2-0.4c0-0.1,0.1-0.1,0.2-0.2c0.1-0.1,0.2-0.2,0.3-0.2c0.1,0,0.2,0,0.2,0&#10;&#9;&#9;c0,0,0.1,0,0.1,0c0,0,0.1,0,0.1,0c0.4,0.4,0.6,0.7,0.7,1c0.1,0.3,0.1,0.6,0.1,0.9c0,0.3-0.1,0.6-0.1,0.9c-0.1,0.3-0.1,0.8-0.1,1.3&#10;&#9;&#9;c0.9,0,1.4,0,1.7,0c0.2,0,0.4-0.1,0.4-0.1c0.1,0,0.2-0.1,0.3-0.2c0.1-0.1,0.6-0.2,1.2-0.3v-8.9c-0.1,0-0.2,0-0.4-0.1&#10;&#9;&#9;c-0.2,0-0.3-0.1-0.5-0.2c-0.2-0.1-0.4-0.2-0.5-0.3c-0.2-0.1-0.3-0.2-0.3-0.4c-0.1-0.1-0.1-0.3-0.1-0.6h1.8c0.1-0.9,0.2-1.8,0.5-2.6&#10;&#9;&#9;c0.3-0.8,0.4-1.7,0.4-2.6c0.2,0,0.5,0.3,0.9,0.8c0.4,0.6,0.8,1.2,1.1,1.9c0.4,0.7,0.7,1.4,1,2c0.3,0.6,0.4,1,0.4,1.1&#10;&#9;&#9;c0,0.2,0,0.4-0.1,0.5c0,0.1-0.1,0.2-0.1,0.3c0,0.1-0.1,0.2-0.1,0.3c0,0.1,0,0.3,0,0.5h1.2v-6.8c-0.3-0.1-0.5-0.2-0.6-0.5&#10;&#9;&#9;c-0.1-0.2-0.2-0.5-0.3-0.8c-0.1-0.3-0.1-0.6-0.1-0.9c0-0.3,0-0.5,0-0.7c0,0,0.1,0,0.3,0.1c0.2,0,0.3,0.1,0.3,0.2&#10;&#9;&#9;c0,0,0.1,0.1,0.1,0.2c0,0.1,0.1,0.3,0.1,0.4c0,0.1,0.1,0.3,0.1,0.4c0,0.1,0.1,0.2,0.1,0.2c0.1,0.1,0.3,0.1,0.6,0&#10;&#9;&#9;c0.3-0.1,0.5-0.2,0.6-0.3c0.2-0.1,0.2-0.2,0.3-0.2v-2.5l0.2,3.8l-0.8,0.4v6.8c0.1,0,0.1,0.1,0.2,0.2c0.1,0.1,0.2,0.2,0.2,0.2&#10;&#9;&#9;c0,0.1,0,0.2,0,0.2c0,0,0,0.1,0,0.2l-0.4,0.4c0,0.1,0,0.2,0,0.3c0,0,0,0.1,0,0.2c0,0,0.1,0.1,0.2,0.1c0.1,0,0.3,0.1,0.4,0.1&#10;&#9;&#9;c0.2,0,0.3,0.1,0.4,0.1c0.1,0,0.2,0.1,0.2,0.1c0,0.1,0,0.1,0,0.2c0,0.3-0.2,0.6-0.5,0.7c-0.3,0.2-0.6,0.3-0.8,0.4&#10;&#9;&#9;c0.4,0,0.6,0.1,0.7,0.3c0.1,0.2,0.2,0.4,0.2,0.6c0,0.2,0.1,0.4,0.1,0.6c0,0.2,0.2,0.3,0.5,0.3c0.1,0,0.3-0.1,0.4-0.2&#10;&#9;&#9;c0.2-0.1,0.3-0.2,0.5-0.4c0.2-0.2,0.3-0.3,0.5-0.4c0.2-0.1,0.3-0.2,0.5-0.3l0.6-3.4v3.4c0,0.2,0.2,0.4,0.5,0.5&#10;&#9;&#9;c0.3,0.1,0.7,0.3,1.1,0.4c0.4,0.2,0.8,0.3,1.2,0.5c0.4,0.2,0.7,0.4,0.8,0.7v-12.3l0.4-1.7l0.4,1.3v19.1h3l0.4-0.4l-2.1-2.1&#10;&#9;&#9;c0,0,0.1,0,0.1,0c0,0,0.1,0,0.1,0s0.1,0,0.2,0c0.1,0.1,0.2,0.2,0.4,0.3c0.2,0.1,0.3,0.2,0.5,0.3c0.2,0.1,0.3,0.2,0.5,0.3&#10;&#9;&#9;c0.2,0.1,0.3,0.2,0.4,0.3c0.3-0.4,0.4-0.8,0.5-1.4c0.1-0.6,0.2-1.1,0.3-1.6c0.1-0.5,0.3-1,0.4-1.5c0.2-0.5,0.4-0.8,0.8-1&#10;&#9;&#9;c0.1,0.3,0.2,0.5,0.4,0.8c0.2,0.2,0.4,0.4,0.7,0.5v5.5h0.6v-2.2c0.4,0,0.7,0.2,0.9,0.6c0.2,0.4,0.3,0.7,0.4,1h3.1&#10;&#9;&#9;c-0.1,0.5-0.1,0.9-0.2,1.1c0,0-0.1,0.1-0.2,0.2c-0.1,0.1-0.2,0.2-0.2,0.2c0,0.1,0,0.1,0,0.2c0,0.1,0.1,0.2,0.1,0.2h2.5&#10;&#9;&#9;c0.1-0.1,0.1-0.2,0.3-0.5c0.1-0.2,0.2-0.5,0.4-0.8c0.1-0.3,0.3-0.5,0.4-0.8c0.1-0.2,0.2-0.4,0.3-0.5c0-0.1,0.1-0.1,0.2-0.2&#10;&#9;&#9;c0.1-0.1,0.2-0.2,0.2-0.2c-0.1,0.5-0.2,0.8-0.1,1.1c0.1,0.3,0.2,0.5,0.3,0.7c0.1,0.2,0.3,0.4,0.4,0.7c0.1,0.2,0.2,0.5,0.3,0.9&#10;&#9;&#9;c0,0.1,0,0.4,0,0.8c0,0.4,0.1,0.8,0.1,1.2c0,0.4,0.1,0.8,0.2,1.2c0.1,0.4,0.1,0.6,0.1,0.7c0,0,0.1,0,0.2,0.1c0.1,0,0.2,0,0.2,0&#10;&#9;&#9;c0.3,0,0.5-0.1,0.6-0.4c0.1-0.3,0.2-0.6,0.4-1c0.1-0.4,0.2-0.7,0.4-1c0.2-0.3,0.4-0.5,0.7-0.6c0.2,0,0.4-0.1,0.7-0.1&#10;&#9;&#9;c0.3,0,0.5-0.1,0.8-0.1c0.3,0,0.6-0.1,0.9-0.1v1.6h3.2c0-0.1,0.1-0.1,0.2-0.2c0.1-0.1,0.2-0.2,0.2-0.2c0.1,0,0.2,0,0.2,0&#10;&#9;&#9;c0.5,0,1,0.1,1.7,0.4c0.6,0.3,1.3,0.4,1.9,0.4c1.4,0,2.7-0.1,4-0.4c1.3-0.3,2.7-0.4,4-0.4h0.4c-0.1,0.1-0.2,0.1-0.4,0.2&#10;&#9;&#9;c-0.2,0.1-0.4,0.2-0.4,0.2c-0.2,0.1-0.6,0.2-1.3,0.3c-0.6,0.1-1.3,0.3-1.9,0.4c-0.7,0.1-1.3,0.3-1.9,0.4c-0.6,0.1-1,0.2-1.3,0.2&#10;&#9;&#9;h2.6c1.2,0,2.5,0,3.8,0c1.4,0,2.7,0,3.9,0h2.5h2.1h2.6c0.9,0,1.8,0,2.7,0c0.9,0,1.8,0,2.5,0h1.9h0.9c0.2,0,0.6,0,1.1,0&#10;&#9;&#9;c0.5,0,1.1-0.1,1.7-0.1c0.6,0,1.1-0.1,1.6-0.1c0.5-0.1,0.9-0.1,1.1-0.1c0.1-0.1,0.2-0.1,0.4-0.2c0.2-0.1,0.4-0.2,0.4-0.2h0.2&#10;&#9;&#9;c0.2,0,0.3,0,0.4,0.1c0.1,0,0.2,0.1,0.3,0.2c0.1,0.1,0.2,0.1,0.4,0.2c0.1,0,0.3,0.1,0.6,0.1c0.1,0,0.3,0,0.4,0c0.2,0,0.3,0,0.5,0&#10;&#9;&#9;c0.2,0,0.3-0.1,0.4-0.2c0.1-0.1,0.2-0.2,0.2-0.5c0-0.3,0-0.6-0.1-1.1c-0.1-0.5-0.2-1-0.4-1.5c-0.2-0.5-0.4-1-0.7-1.4&#10;&#9;&#9;c-0.3-0.4-0.6-0.7-1-0.9c-0.2-0.1-0.5-0.2-1-0.4c-0.5-0.2-1-0.3-1.5-0.5c-0.5-0.2-1.1-0.3-1.5-0.5c-0.5-0.2-0.8-0.3-1-0.3&#10;&#9;&#9;c-0.1,0-0.3,0-0.6,0.1v1.6c-0.4-0.1-0.7-0.3-0.9-0.8c-0.2-0.5-0.2-0.9-0.2-1.4v-0.9c0-0.1,0-0.2,0-0.4c0-0.2,0-0.4,0-0.4&#10;&#9;&#9;c0.8,0.3,1.5,0.5,2.1,0.7c0.6,0.2,1.2,0.4,1.9,0.6c0.6,0.2,1.3,0.4,2,0.6c0.7,0.2,1.6,0.4,2.6,0.6l1.7,6c0.1,0.3,0.2,0.4,0.5,0.4&#10;&#9;&#9;c0.2,0,0.4,0,0.6,0c0.3,0,0.6,0,0.8-0.1c0.2,0,0.4-0.2,0.7-0.4v0.4l-2.7,8.5l-6.3,0.9c0.2,0.1,0.4,0.2,0.4,0.3&#10;&#9;&#9;c0,0.1,0.1,0.3,0.1,0.5c0,0.4,0,0.8-0.1,1.2c-0.1,0.4-0.2,0.8-0.3,1.1c-0.2,0.3-0.4,0.6-0.6,0.9c-0.3,0.2-0.6,0.3-1,0.3&#10;&#9;&#9;c-0.1,0-0.2,0-0.5-0.1l-1.3-3.8c0,0-0.1,0-0.3-0.1c-0.2,0-0.4,0-0.5,0c-0.1,0-0.4,0-0.7,0c-0.3,0-0.5,0-0.6,0.1&#10;&#9;&#9;c-0.1,0-0.1,0.1-0.3,0.2c-0.1,0.1-0.2,0.2-0.2,0.2v3.4c-0.1-0.1-0.2-0.1-0.4-0.2c-0.2-0.1-0.4-0.2-0.4-0.2h-0.2h-0.2&#10;&#9;&#9;c-0.1,0-0.1,0.1-0.2,0.2c-0.1,0.1-0.2,0.2-0.2,0.2L514,411.4z M460.8,397.6c0.1,0.1,0.4,0.2,0.6,0.2c0.3,0,0.5-0.1,0.6-0.2&#10;&#9;&#9;c0.1-0.1,0-0.1-0.1-0.1c-0.1,0-0.3,0-0.5,0c-0.2,0-0.4,0-0.5,0C460.8,397.5,460.8,397.5,460.8,397.6z M466,397.6&#10;&#9;&#9;c0.2,0.1,0.6,0.2,1.1,0.2c0.5,0,0.8-0.1,1.1-0.2c0.1-0.1,0-0.1-0.3-0.1c-0.3,0-0.5,0-0.8,0c-0.3,0-0.6,0-0.8,0&#10;&#9;&#9;C465.9,397.5,465.9,397.5,466,397.6z M468.9,397.6c0.2,0.1,0.6,0.2,1.1,0.2c0.5,0,0.8-0.1,1.1-0.2c0.1-0.1,0-0.1-0.3-0.1&#10;&#9;&#9;c-0.3,0-0.5,0-0.8,0c-0.3,0-0.6,0-0.8,0C468.9,397.5,468.8,397.5,468.9,397.6z M563.8,398.5c-0.2,0-0.3,0.1-0.3,0.4&#10;&#9;&#9;c0,0.3,0.1,0.4,0.3,0.4c0.2,0,0.3-0.1,0.3-0.4C564.1,398.6,564,398.5,563.8,398.5z M564.6,398.9c0.1,0.1,0.1,0.2,0.2,0.2&#10;&#9;&#9;c0.1,0,0.2-0.1,0.2-0.2c0.1-0.1,0-0.2-0.2-0.2C564.7,398.7,564.6,398.7,564.6,398.9z M602.9,387c0.2,0,0.3,0.1,0.3,0.4&#10;&#9;&#9;c0,0.3-0.1,0.4-0.3,0.4c-0.2,0-0.3-0.1-0.3-0.4C602.6,387.1,602.7,387,602.9,387z M609.7,390.4c-0.2,0-0.3,0.1-0.3,0.4&#10;&#9;&#9;c0,0.3,0.1,0.4,0.3,0.4c0.2,0,0.3-0.1,0.3-0.4C610.1,390.5,610,390.4,609.7,390.4z M611.4,390.8c-0.2,0-0.3,0.1-0.3,0.4&#10;&#9;&#9;c0,0.3,0.1,0.4,0.3,0.4c0.2,0,0.3-0.1,0.3-0.4C611.8,390.9,611.7,390.8,611.4,390.8z" style="fill: rgb(204, 204, 204); opacity: 1;" transform="matrix(1, 0, 0, 1, 0, 0)"/></svg>