<?xml version="1.0" encoding="utf-8"?>
<svg viewBox="62.60000991821289 644 426.00006103515625 259.000732421875" width="426.00006103515625" height="259.000732421875" xmlns="http://www.w3.org/2000/svg"><g transform="matrix(1, 0, 0, 1, 5.684341886080802e-14, 0)"><path d="M 169.399994 803.700012 H 189.399994 V 832.300013 H 169.399994 V 803.700012 Z" class="st5" style="fill: rgb(204, 204, 204); opacity: 1;" transform="matrix(1, 0, 0, 1, 2.000000000000057, 1.0000000000000568)"/><path d="M 198.5 796.200012 H 219.9 V 834.100014 H 198.5 V 796.200012 Z" class="st1" style="fill: rgb(204, 204, 204); opacity: 1;" transform="matrix(1, 0, 0, 1, 1.1368683772161603e-13, 0)"/><path d="M 235.300003 792.599976 H 319.300003 V 836.999977 H 235.300003 V 792.599976 Z" class="st5" style="fill: rgb(204, 204, 204); opacity: 1;" transform="matrix(1, 0, 0, 1, 1.1368683772161603e-13, 0)"/><path class="st5" d="M446.9,847.9h-16.2c-1.8,0-3.2-1.5-3.2-3.2v-13.9c0-1.8,1.5-3.2,3.2-3.2h16.2c1.8,0,3.2,1.5,3.2,3.2v13.9&#10;&#9;&#9;&#9;C450.2,846.4,448.7,847.9,446.9,847.9z" style="fill: rgb(204, 204, 204); opacity: 1;" transform="matrix(1, 0, 0, 1, 1.1368683772161603e-13, 3)"/><path d="M 181.600006 752.900024 H 184.900006 V 777.000025 H 181.600006 V 752.900024 Z" class="st1" style="fill: rgb(204, 204, 204); opacity: 1;" transform="matrix(1, 0, 0, 1, 1.1368683772161603e-13, 3)"/><path d="M 157.600006 740.200012 H 161.400006 V 804.600014 H 157.600006 V 740.200012 Z" transform="matrix(-0.7071002125740051, -0.707100212574005, 0.7071002125740051, -0.707100212574005, -273.9350891113281, 1434.4349365234375)" class="st5" style="fill: rgb(204, 204, 204); opacity: 1;"/><path d="M 468 864.2999877929688 L 496.6000061035156 901 L 454.70001220703125 901 Z" class="st6" style="fill: rgb(204, 204, 204); opacity: 1;" transform="matrix(1, 0, 0, 1, -7.999999999999943, 2.000000000000057)"/><path d="M 365.600006 783.200012 H 415.500008 V 805.500011 H 365.600006 V 783.200012 Z" class="st5" style="fill: rgb(204, 204, 204); opacity: 1;" transform="matrix(1, 0, 0, 1, 5.000000000000057, 0)"/><path d="M 426.399994 764.5 H 432.099994 V 805.599998 H 426.399994 V 764.5 Z" class="st44" style="fill: rgb(204, 204, 204); opacity: 1;" transform="matrix(1, 0, 0, 1, 1.1368683772161603e-13, 0)"/><path d="M 350 704.700012 H 354.7 V 774.300011 H 350 V 704.700012 Z" class="st1" style="fill: rgb(204, 204, 204); opacity: 1;" transform="matrix(1, 0, 0, 1, 1.1368683772161603e-13, 0)"/><path class="st44" d="M407.6,731.4l-42,47v-4h-6.2l45.9-45.3C406.8,727.7,408.9,729.8,407.6,731.4z" style="fill: rgb(204, 204, 204); opacity: 1;" transform="matrix(1, 0, 0, 1, 1.1368683772161603e-13, 0)"/><path d="M 404.600006 733.900024 H 409.100006 V 754.300024 H 404.600006 V 733.900024 Z" class="st1" style="fill: rgb(204, 204, 204); opacity: 1;" transform="matrix(1, 0, 0, 1, 1.1368683772161603e-13, 0)"/><path d="M 235.300003 752.900024 H 297.700005 V 764.500025 H 235.300003 V 752.900024 Z" class="st34" style="fill: rgb(204, 204, 204); opacity: 1;" transform="matrix(1.2616217136383059, 0, 0, 1.2616217136383054, -61.55958175659174, -196.9749755859375)"/><path d="M 296 710.7999877929688 L 306.79998779296875 710.7999877929688 L 306.79998779296875 716.4000244140625 L 296 716.4000244140625 L 296 752.9000244140625 L 290.1000061035156 752.9000244140625 L 290.1000061035156 716.4000244140625 L 290.1000061035156 710.7999877929688 Z" class="st5" style="fill: rgb(204, 204, 204); opacity: 1;" transform="matrix(1, 0, 0, 1, 1.1368683772161603e-13, 1.0000000000000568)"/><path d="M 219.899994 728.599976 H 290.099991 V 733.999976 H 219.899994 V 728.599976 Z" class="st44" style="fill: rgb(204, 204, 204); opacity: 1;" transform="matrix(1, 0, 0, 1, 1.0000000000000568, 1.0000000000000568)"/><path d="M 255 647 H 259.9 V 728.599998 H 255 V 647 Z" class="st5" style="fill: rgb(204, 204, 204); opacity: 1;" transform="matrix(1, 0, 0, 1, 1.1368683772161603e-13, 1.0000000000000568)"/><path class="st45" d="M301.9,651.4c-12.5-9.4-26.3,5.5-41.9-4.3v26.5c12.8,9.7,27.5-8.8,41.9,1.9V651.4z" style="fill: rgb(204, 204, 204); opacity: 1;" transform="matrix(1, 0, 0, 1, -0.9999999999999432, 2.000000000000057)"/><path d="M 240.5 665.099976 H 244 V 728.699974 H 240.5 V 665.099976 Z" class="st5" style="fill: rgb(204, 204, 204); opacity: 1;" transform="matrix(1, 0, 0, 1, 1.1368683772161603e-13, 1.0000000000000568)"/><path d="M 151.5 794.700012 H 169.4 V 839.100014 H 151.5 V 794.700012 Z" class="st34" style="fill: rgb(204, 204, 204); opacity: 1;" transform="matrix(1, 0, 0, 1, 1.1368683772161603e-13, 0)"/><path d="M 130.399994 794.700012 H 142.399994 V 824.300013 H 130.399994 V 794.700012 Z" class="st5" style="fill: rgb(204, 204, 204); opacity: 1;" transform="matrix(1, 0, 0, 1, 1.1368683772161603e-13, 3)"/><path d="M 133.800003 733.5 H 139.100003 V 794.599998 H 133.800003 V 733.5 Z" class="st1" style="fill: rgb(204, 204, 204); opacity: 1;" transform="matrix(1, 0, 0, 1, 1.1368683772161603e-13, 3)"/><path d="M 128.199997 728.700012 H 144.599997 V 733.500012 H 128.199997 V 728.700012 Z" class="st5" style="fill: rgb(204, 204, 204); opacity: 1;" transform="matrix(1, 0, 0, 1, 1.1368683772161603e-13, 3)"/><path d="M 188.800003 749.700012 A 5.5 5.5 0 0 1 183.300003 755.200012 A 5.5 5.5 0 0 1 177.800003 749.700012 A 5.5 5.5 0 0 1 183.300003 744.200012 A 5.5 5.5 0 0 1 188.800003 749.700012 Z" class="st34" style="fill: rgb(204, 204, 204); opacity: 1;" transform="matrix(1, 0, 0, 1, 1.1368683772161603e-13, 3)"/><path d="M 412.799994 730.299988 A 5.9 5.9 0 0 1 406.899994 736.199988 A 5.9 5.9 0 0 1 400.999994 730.299988 A 5.9 5.9 0 0 1 406.899994 724.399988 A 5.9 5.9 0 0 1 412.799994 730.299988 Z" class="st5" style="fill: rgb(204, 204, 204); opacity: 1;" transform="matrix(1, 0, 0, 1, 1.1368683772161603e-13, 0)"/><path d="M 62.599998474121094 818.2000122070312 L 90.4000015258789 849 L 132.1999969482422 853.5999755859375 Z" class="st46" style="fill: rgb(204, 204, 204); opacity: 1;" transform="matrix(0.9410132169723511, 0, 0, 0.941013216972351, 19.295618057251033, 56.147087097168026)"/><path d="M 132.1999969482422 853.5999755859375 L 430.29998779296875 886.5999755859375 L 477.5 838 L 62.599998474121094 818.2000122070312 Z" class="st6" style="fill: rgb(204, 204, 204); opacity: 1;" transform="matrix(1, 0, 0, 1, 2.2737367544323206e-13, 3)"/><path d="M 458.79998779296875 889.7999877929688 L 477.5 838 L 430.29998779296875 886.5999755859375 Z" class="st46" style="fill: rgb(204, 204, 204); opacity: 1;" transform="matrix(0.9371327757835389, 0, 0, 0.9371327757835386, 14.178111076355037, 59.64379882812506)"/><path d="M 90.4000015258789 849 L 137.3000030517578 901 L 225.39999389648438 901 L 132.1999969482422 853.5999755859375 Z" class="st47" style="fill: rgb(204, 204, 204); opacity: 1;" transform="matrix(0.9410132169723511, 0, 0, 0.941013216972351, 19.295618057251033, 55.147087097168)"/><path d="M 132.1999969482422 853.5999755859375 L 225.39999389648438 901 L 416.3999938964844 901 L 430.29998779296875 886.5999755859375 Z" class="st44" style="fill: rgb(204, 204, 204); opacity: 1;" transform="matrix(1, 0, 0, 1, 2.2737367544323206e-13, 2.000000000000057)"/><path d="M 416.3999938964844 901 L 454.70001220703125 901 L 458.79998779296875 889.7999877929688 L 430.29998779296875 886.5999755859375 Z" class="st47" style="fill: rgb(204, 204, 204); opacity: 1;" transform="matrix(0.9371328949928284, 0, 0, 0.9371328949928283, 14.178111076355037, 58.643798828125)"/><path class="st44" d="M329.5,812.8c-2.1,0-3.9,1.7-3.9,3.9v3.1c0,2.1,1.7,3.9,3.9,3.9s3.9-1.7,3.9-3.9v-3.1&#10;&#9;&#9;&#9;C333.3,814.5,331.6,812.8,329.5,812.8z" style="fill: rgb(204, 204, 204); opacity: 1;" transform="matrix(1, 0, 0, 1, 1.1368683772161603e-13, 0)"/><path class="st44" d="M346.3,812.8c-2.1,0-3.9,1.7-3.9,3.9v3.1c0,2.1,1.7,3.9,3.9,3.9c2.1,0,3.9-1.7,3.9-3.9v-3.1&#10;&#9;&#9;&#9;C350.2,814.5,348.5,812.8,346.3,812.8z" style="fill: rgb(204, 204, 204); opacity: 1;" transform="matrix(1, 0, 0, 1, 1.1368683772161603e-13, 0)"/><path class="st44" d="M363.2,812.8c-2.1,0-3.9,1.7-3.9,3.9v3.1c0,2.1,1.7,3.9,3.9,3.9c2.1,0,3.9-1.7,3.9-3.9v-3.1&#10;&#9;&#9;&#9;C367,814.5,365.3,812.8,363.2,812.8z" style="fill: rgb(204, 204, 204); opacity: 1;" transform="matrix(1, 0, 0, 1, 1.1368683772161603e-13, 0)"/><path class="st44" d="M380,812.8c-2.1,0-3.9,1.7-3.9,3.9v3.1c0,2.1,1.7,3.9,3.9,3.9c2.1,0,3.9-1.7,3.9-3.9v-3.1&#10;&#9;&#9;&#9;C383.9,814.5,382.2,812.8,380,812.8z" style="fill: rgb(204, 204, 204); opacity: 1;" transform="matrix(1, 0, 0, 1, 1.1368683772161603e-13, 0)"/><path class="st44" d="M396.9,812.8c-2.1,0-3.9,1.7-3.9,3.9v3.1c0,2.1,1.7,3.9,3.9,3.9s3.9-1.7,3.9-3.9v-3.1&#10;&#9;&#9;&#9;C400.7,814.5,399,812.8,396.9,812.8z" style="fill: rgb(204, 204, 204); opacity: 1;" transform="matrix(1, 0, 0, 1, 1.1368683772161603e-13, 0)"/><path class="st44" d="M413.7,812.8c-2.1,0-3.9,1.7-3.9,3.9v3.1c0,2.1,1.7,3.9,3.9,3.9c2.1,0,3.9-1.7,3.9-3.9v-3.1&#10;&#9;&#9;&#9;C417.6,814.5,415.9,812.8,413.7,812.8z" style="fill: rgb(204, 204, 204); opacity: 1;" transform="matrix(1, 0, 0, 1, 1.1368683772161603e-13, 0)"/><path class="st44" d="M430.6,812.8c-2.1,0-3.9,1.7-3.9,3.9v3.1c0,2.1,1.7,3.9,3.9,3.9c2.1,0,3.9-1.7,3.9-3.9v-3.1&#10;&#9;&#9;&#9;C434.4,814.5,432.7,812.8,430.6,812.8z" style="fill: rgb(204, 204, 204); opacity: 1;" transform="matrix(1, 0, 0, 1, 1.1368683772161603e-13, 0)"/><path class="st44" d="M447.4,812.8c-2.1,0-3.9,1.7-3.9,3.9v3.1c0,2.1,1.7,3.9,3.9,3.9c2.1,0,3.9-1.7,3.9-3.9v-3.1&#10;&#9;&#9;&#9;C451.3,814.5,449.5,812.8,447.4,812.8z" style="fill: rgb(204, 204, 204); opacity: 1;" transform="matrix(1, 0, 0, 1, 1.1368683772161603e-13, 0)"/><path d="M 228.39999389648438 734 L 242.6999969482422 752.9000244140625 L 244.10000610351562 752.9000244140625 L 230.39999389648438 734 Z" class="st1" style="fill: rgb(204, 204, 204); opacity: 1;" transform="matrix(1, 0, 0, 1, 1.7053025658242404e-13, 1.0000000000000568)"/><path d="M 242.60000610351562 734 L 253.5 752.9000244140625 L 255 752.9000244140625 L 244.5 734 Z" class="st1" style="fill: rgb(204, 204, 204); opacity: 1;" transform="matrix(1, 0, 0, 1, 1.7053025658242404e-13, 1.0000000000000568)"/><path d="M 256.79998779296875 734 L 264.29998779296875 752.9000244140625 L 265.79998779296875 752.9000244140625 L 258.70001220703125 734 Z" class="st1" style="fill: rgb(204, 204, 204); opacity: 1;" transform="matrix(1, 0, 0, 1, 1.7053025658242404e-13, 1.0000000000000568)"/><path d="M 270.8999938964844 734 L 275.20001220703125 752.9000244140625 L 276.6000061035156 752.9000244140625 L 272.79998779296875 734 Z" class="st1" style="fill: rgb(204, 204, 204); opacity: 1;" transform="matrix(1, 0, 0, 1, 1.7053025658242404e-13, 1.0000000000000568)"/><path d="M 285.1000061035156 734 L 286 752.9000244140625 L 287.5 752.9000244140625 L 287 734 Z" class="st1" style="fill: rgb(204, 204, 204); opacity: 1;" transform="matrix(1, 0, 0, 1, 1.7053025658242404e-13, 1.0000000000000568)"/><path class="st44" d="M241.5,772.5c-2.1,0-3.8,1.5-3.8,3.4v3.9c0,1.9,1.7,3.4,3.8,3.4c2.1,0,3.8-1.5,3.8-3.4v-3.9&#10;&#9;&#9;&#9;C245.3,774,243.6,772.5,241.5,772.5z" style="fill: rgb(204, 204, 204); opacity: 1;" transform="matrix(1, 0, 0, 1, 1.1368683772161603e-13, -0.9999999999999432)"/><path class="st44" d="M253.8,772.5c-2.1,0-3.8,1.5-3.8,3.4v3.9c0,1.9,1.7,3.4,3.8,3.4s3.8-1.5,3.8-3.4v-3.9&#10;&#9;&#9;&#9;C257.6,774,255.9,772.5,253.8,772.5z" style="fill: rgb(204, 204, 204); opacity: 1;" transform="matrix(1, 0, 0, 1, 1.1368683772161603e-13, -0.9999999999999432)"/><path class="st44" d="M266.1,772.5c-2.1,0-3.8,1.5-3.8,3.4v3.9c0,1.9,1.7,3.4,3.8,3.4c2.1,0,3.8-1.5,3.8-3.4v-3.9&#10;&#9;&#9;&#9;C269.9,774,268.2,772.5,266.1,772.5z" style="fill: rgb(204, 204, 204); opacity: 1;" transform="matrix(1, 0, 0, 1, 1.1368683772161603e-13, -0.9999999999999432)"/><path class="st44" d="M278.4,772.5c-2.1,0-3.8,1.5-3.8,3.4v3.9c0,1.9,1.7,3.4,3.8,3.4c2.1,0,3.8-1.5,3.8-3.4v-3.9&#10;&#9;&#9;&#9;C282.2,774,280.5,772.5,278.4,772.5z" style="fill: rgb(204, 204, 204); opacity: 1;" transform="matrix(1, 0, 0, 1, 1.1368683772161603e-13, -0.9999999999999432)"/><path class="st44" d="M290.7,772.5c-2.1,0-3.8,1.5-3.8,3.4v3.9c0,1.9,1.7,3.4,3.8,3.4c2.1,0,3.8-1.5,3.8-3.4v-3.9&#10;&#9;&#9;&#9;C294.5,774,292.8,772.5,290.7,772.5z" style="fill: rgb(204, 204, 204); opacity: 1;" transform="matrix(1, 0, 0, 1, 1.1368683772161603e-13, -0.9999999999999432)"/><path class="st44" d="M303,772.5c-2.1,0-3.8,1.5-3.8,3.4v3.9c0,1.9,1.7,3.4,3.8,3.4c2.1,0,3.8-1.5,3.8-3.4v-3.9&#10;&#9;&#9;&#9;C306.8,774,305.1,772.5,303,772.5z" style="fill: rgb(204, 204, 204); opacity: 1;" transform="matrix(1, 0, 0, 1, 1.1368683772161603e-13, -0.9999999999999432)"/><path d="M 235.3000030517578 783.2000122070312 L 309.5 792.5999755859375 L 235.3000030517578 792.5999755859375 Z" class="st48" style="fill: rgb(204, 204, 204); opacity: 1;" transform="matrix(1, 0, 0, 1, 1.1368683772161603e-13, 1.0000000000000568)"/><path d="M 319.399994 778.5 H 365.699993 V 781.3 H 319.399994 V 778.5 Z" class="st48" style="fill: rgb(204, 204, 204); opacity: 1;" transform="matrix(1, 0, 0, 1, 1.1368683772161603e-13, 0)"/><path d="M 319.399994 783.599976 H 365.699993 V 786.399976 H 319.399994 V 783.599976 Z" class="st48" style="fill: rgb(204, 204, 204); opacity: 1;" transform="matrix(1, 0, 0, 1, 1.1368683772161603e-13, 0)"/><path class="st48" d="M349.7,789.2h-5.8c-1.2,0-2.2,1-2.2,2.2v7.7c0,1.2,1,2.2,2.2,2.2h5.8c1.2,0,2.2-1,2.2-2.2v-7.7&#10;&#9;&#9;&#9;C351.9,790.2,350.9,789.2,349.7,789.2z" style="fill: rgb(204, 204, 204); opacity: 1;" transform="matrix(1, 0, 0, 1, 1.1368683772161603e-13, 0)"/><path class="st48" d="M356.4,789.2h-1.9c-0.5,0-0.9,0.4-0.9,0.9v1.6c0,0.5,0.4,0.9,0.9,0.9h1.9c0.5,0,0.9-0.4,0.9-0.9v-1.6&#10;&#9;&#9;&#9;C357.3,789.6,356.9,789.2,356.4,789.2z" style="fill: rgb(204, 204, 204); opacity: 1;" transform="matrix(1, 0, 0, 1, 1.1368683772161603e-13, 0)"/><path class="st48" d="M361.8,789.2h-1.9c-0.5,0-0.9,0.4-0.9,0.9v1.6c0,0.5,0.4,0.9,0.9,0.9h1.9c0.5,0,0.9-0.4,0.9-0.9v-1.6&#10;&#9;&#9;&#9;C362.7,789.6,362.3,789.2,361.8,789.2z" style="fill: rgb(204, 204, 204); opacity: 1;" transform="matrix(1, 0, 0, 1, 1.1368683772161603e-13, 0)"/><path class="st48" d="M356.4,794.2h-1.9c-0.5,0-0.9,0.4-0.9,0.9v1.6c0,0.5,0.4,0.9,0.9,0.9h1.9c0.5,0,0.9-0.4,0.9-0.9v-1.6&#10;&#9;&#9;&#9;C357.3,794.6,356.9,794.2,356.4,794.2z" style="fill: rgb(204, 204, 204); opacity: 1;" transform="matrix(1, 0, 0, 1, 1.1368683772161603e-13, 0)"/><path class="st48" d="M361.8,794.2h-1.9c-0.5,0-0.9,0.4-0.9,0.9v1.6c0,0.5,0.4,0.9,0.9,0.9h1.9c0.5,0,0.9-0.4,0.9-0.9v-1.6&#10;&#9;&#9;&#9;C362.7,794.6,362.3,794.2,361.8,794.2z" style="fill: rgb(204, 204, 204); opacity: 1;" transform="matrix(1, 0, 0, 1, 1.1368683772161603e-13, 0)"/></g></svg>