<?xml version="1.0" encoding="utf-8"?>
<svg viewBox="82.80000305175781 417.3999938964844 844.0999755859375 175.69998168945312" width="844.0999755859375" height="175.69998168945312" xmlns="http://www.w3.org/2000/svg"><g transform="matrix(1, 0, 0, 1, 0, 0)">
		
		<path d="M95.3,566.9c3.9,0,0.7,17,11.8,21.6c11.1,4.6,795.6,0,795.6,0v-12.4l24.2-20.3l-6.5-7.2V544l-8.5-3.3h-5.9l-2,13.8h-4.8&#10;&#9;&#9;&#9;v-13.8h-6.1v13.8h-11.6v-11.4h2.8v-6.3h9.2v-8.5H744.6v-4.8h-10.9v4.8h-51.5v-4.8h-20.1v4.8h-57v-4.8h-7v4.8h-9.8v-4.8h-7v4.8&#10;&#9;&#9;&#9;h-9.8v-4.8h-7v4.8h-9.8V523l6.3-3.3l-5.2-6.3h-8.5l-7.6,8.7l-2.2-7.4l-2.2-9.4h-5.5l-1.1,6.1v1v15.8h-14.5l1.9-7.4l7.9-10.3&#10;&#9;&#9;&#9;l1.5-4.1l-5.2-3.3v-12h-7.9v-25h-4.6v25h-21.4V484h5.2v-12.2h-2.4v-16.4h10V446h-21v-14.2h2.4v-14.4h-4.3v9.6h-1.4v0.9h-6.8v12&#10;&#9;&#9;&#9;h6.8v58.8l-3.3,6.7l-4.4-1.7l-2.6-3.9h-6.5v5.5l-3.7,2.6l-5.5-2.6l-4.4,4.4l2.8,5.5l-4.4,3.7l-4.6-2.4l-8.5-1.3l-2.6,5.5l5.2,1.7&#10;&#9;&#9;&#9;v6.1h-16.2v-6.1h-4.1v6.1h-22.9v-6.1h-4.1v6.1h-22.9v-6.1h-4.1v6.1h-21.8V513h-7.9v15.3h-19v-18.3h-10.7v18.3h-18.3v-18.3h-10.9&#10;&#9;&#9;&#9;v18.3H116.9l-2,8.5h8.5v17h-20.3V542h-7.9v13.8H84.8C84.8,555.8,82.8,561,95.3,566.9z M861.6,543.1h17v11.4h-17V543.1z&#10;&#9;&#9;&#9; M846.8,536.8h10v17.7h-10V536.8z M836.5,536.8h6.8v17.7h-6.8V536.8z M645.7,533.7h10v8.3h-10V533.7z M630.7,533.7h11.8v8.3h-11.8&#10;&#9;&#9;&#9;V533.7z M617.8,533.7h9.6v8.3h-9.6V533.7z M478.3,455.4h6.4v16.4h-6.4V455.4z M478.3,484h4.8v7.2h-4.8V484z M349.5,538.5h88.2&#10;&#9;&#9;&#9;l7,5.7v15.2h-12l-1.1-7.3h-10.5l-1.7,3.1h-8.7V551h-4.6v5.9h-8.9V554h-10.7l-3.2,3.2l-3.6-3.6v-8.9h-5.2v10.9h-24.9V538.5z&#10;&#9;&#9;&#9; M238.2,534.6h7.9v4.8h-7.9V534.6z M224,534.6h7.9v4.8H224V534.6z M209.8,534.6h7.9v4.8h-7.9V534.6z M180.8,536.6h14v6.5h-14&#10;&#9;&#9;&#9;V536.6z M154.8,536.6h19.4v6.5h-19.4V536.6z M135.9,536.6h12.9v6.5h-12.9V536.6z" style="fill: rgb(204, 204, 204); opacity: 1;"/>
	</g></svg>